<?xml version="1.0" encoding="UTF-8"?><svg id="b" xmlns="http://www.w3.org/2000/svg" viewBox="0 0 35.22 45"><g id="c"><g><path d="M32.37,4.79c.06,.07,.15,.11,.25,.11s.18-.04,.25-.11l2.28-2.29c.09-.1,.11-.24,.05-.35-.05-.12-.17-.19-.3-.19h-.82V.33c0-.18-.15-.33-.33-.33h-2.26c-.18,0-.33,.15-.33,.33V1.95h-.82c-.13,0-.25,.08-.3,.19-.05,.12-.03,.26,.05,.35l2.28,2.29Z" style="fill:#e83820;"/><path d="M21.45,20.44c-.94-1.05-1.87-2.22-2.71-3.27-.39-.5-.77-.97-1.13-1.4l-.03-.03c.52-1.47,.81-2.68,.88-3.58,.17-2.31-.09-3.79-.79-4.54-.47-.51-1.18-.68-1.84-.46-.48,.16-1.12,.59-1.49,1.72-.55,1.68-.28,4.66,1.28,7.13-.7,1.82-1.67,3.92-2.74,5.92-2.04,.72-3.67,1.66-4.84,2.8-1.53,1.49-2.15,2.97-1.7,4.06,.27,.67,.91,1.08,1.69,1.08,.55,0,1.14-.2,1.71-.57,1.45-.95,3.33-4.09,4.35-5.92,2.09-.65,4.16-.92,5.21-1.02,.48-.05,.95-.08,1.4-.11,1.84,1.94,3.34,2.97,4.73,3.22,.28,.05,.56,.08,.83,.08,1.13,0,2.06-.45,2.5-1.21,.33-.57,.32-1.24-.02-1.83-.77-1.33-3.09-2.06-6.54-2.06-.25,0-.5,0-.77,.01h0Zm-12.66,7.37c-.27,.18-.55,.28-.75,.28-.04,0-.06,0-.08,0-.03-.17,.09-.93,1.31-2.12,.57-.56,1.3-1.07,2.16-1.53-1.08,1.74-2.06,2.99-2.64,3.37h0Zm7.22-18.4c.13-.39,.29-.57,.38-.6,0,0,0,0,0,0,.09,.11,.5,.72,.32,3.22-.03,.44-.14,.99-.32,1.64-.58-1.5-.74-3.17-.39-4.25h0Zm3.13,11.18c-.93,.09-2.35,.27-3.93,.65,.61-1.22,1.18-2.47,1.66-3.62,.16,.21,.33,.42,.5,.63,.57,.72,1.22,1.53,1.88,2.32h-.11Zm8.09,2.79s.03,.06,.02,.07c-.07,.13-.41,.33-.98,.33-.16,0-.33-.02-.51-.05-.72-.13-1.56-.63-2.57-1.52,2.72,.13,3.82,.79,4.04,1.17h0Z" style="fill:#e83820;"/><path d="M25.16,0H2.52C1.13,0,0,1.12,0,2.52V42.48c0,1.39,1.13,2.52,2.52,2.52h30.19c1.39,0,2.52-1.13,2.52-2.52V10.06L25.16,0Zm0,3.56l6.51,6.51h-6.51V3.56Zm7.55,38.93H2.52V2.52H22.64v7.55c0,1.39,1.13,2.52,2.52,2.52h7.55v29.91h0Z" style="fill:#e83820;"/><path d="M13.45,32.18c-.21-.18-.45-.31-.73-.39-.28-.08-.67-.12-1.18-.12h-1.67c-.32,0-.56,.07-.71,.22-.16,.15-.24,.39-.24,.71v4.97c0,.29,.07,.51,.21,.67,.14,.16,.33,.24,.57,.24s.41-.08,.56-.24c.14-.16,.22-.39,.22-.68v-1.7h1.07c.83,0,1.46-.18,1.89-.54,.43-.36,.65-.89,.65-1.59,0-.32-.05-.62-.16-.88-.11-.26-.26-.49-.47-.67h0Zm-1.08,2.08c-.09,.13-.23,.21-.41,.27-.19,.06-.44,.09-.73,.09h-.75v-1.72h.75c.68,0,.95,.14,1.06,.25,.15,.16,.22,.36,.22,.61,0,.21-.05,.38-.14,.5h0Z" style="fill:#e83820;"/><path d="M19.64,32.28c-.27-.24-.58-.4-.91-.49-.33-.08-.72-.13-1.17-.13h-1.7c-.31,0-.55,.08-.7,.23-.15,.15-.23,.39-.23,.7v4.72c0,.22,.02,.4,.06,.54,.05,.16,.14,.29,.29,.38,.14,.09,.34,.13,.6,.13h1.7c.3,0,.58-.02,.82-.06,.25-.04,.48-.11,.69-.21,.22-.1,.42-.23,.6-.4,.23-.21,.42-.45,.57-.72,.15-.27,.25-.57,.32-.9,.07-.33,.1-.69,.1-1.09,0-1.2-.35-2.12-1.05-2.71h0Zm-1.14,4.52c-.08,.07-.19,.13-.3,.17-.12,.04-.24,.07-.35,.08-.12,.01-.29,.02-.5,.02h-.86v-4.12h.74c.39,0,.72,.04,.98,.12,.25,.08,.46,.26,.64,.55,.18,.3,.27,.75,.27,1.36,0,.86-.21,1.47-.61,1.81h0Z" style="fill:#e83820;"/><path d="M25.56,31.67h-3.08c-.21,0-.37,.03-.51,.09-.15,.07-.25,.17-.32,.32-.06,.14-.09,.3-.09,.51v4.96c0,.3,.07,.53,.22,.68,.15,.16,.34,.24,.56,.24s.41-.08,.56-.24c.14-.15,.22-.39,.22-.68v-2h2.02c.23,0,.4-.05,.53-.16,.13-.11,.19-.26,.19-.45s-.06-.34-.19-.45c-.12-.11-.3-.17-.53-.17h-2.02v-1.4h2.45c.24,0,.42-.06,.55-.17,.13-.12,.19-.27,.19-.46s-.06-.34-.19-.46c-.13-.11-.31-.17-.55-.17h0Z" style="fill:#e83820;"/></g></g></svg>